<svg width="177" height="30" viewBox="0 0 177 30" fill="none" xmlns="http://www.w3.org/2000/svg">
<rect width="40" height="30" fill="#D6D5C7"/>
<path d="M13.152 14.288C13.7493 14.3947 14.256 14.7093 14.672 15.232C15.088 15.7547 15.296 16.3467 15.296 17.008C15.296 17.5733 15.1467 18.0853 14.848 18.544C14.56 18.992 14.1387 19.3493 13.584 19.616C13.0293 19.872 12.384 20 11.648 20H7.2V8.88H11.44C12.1973 8.88 12.848 9.008 13.392 9.264C13.936 9.52 14.3467 9.86667 14.624 10.304C14.9013 10.7307 15.04 11.2107 15.04 11.744C15.04 12.384 14.8693 12.9173 14.528 13.344C14.1867 13.7707 13.728 14.0853 13.152 14.288ZM9.024 13.552H11.28C11.8773 13.552 12.3413 13.4187 12.672 13.152C13.0133 12.8747 13.184 12.48 13.184 11.968C13.184 11.4667 13.0133 11.0773 12.672 10.8C12.3413 10.512 11.8773 10.368 11.28 10.368H9.024V13.552ZM11.488 18.512C12.1067 18.512 12.592 18.3627 12.944 18.064C13.296 17.7653 13.472 17.3493 13.472 16.816C13.472 16.272 13.2853 15.84 12.912 15.52C12.5387 15.2 12.0427 15.04 11.424 15.04H9.024V18.512H11.488ZM16.6701 15.552C16.6701 14.6667 16.8515 13.8827 17.2141 13.2C17.5875 12.5173 18.0888 11.9893 18.7181 11.616C19.3581 11.232 20.0621 11.04 20.8301 11.04C21.5235 11.04 22.1261 11.1787 22.6381 11.456C23.1608 11.7227 23.5768 12.0587 23.8861 12.464V11.184H25.7261V20H23.8861V18.688C23.5768 19.104 23.1555 19.4507 22.6221 19.728C22.0888 20.0053 21.4808 20.144 20.7981 20.144C20.0408 20.144 19.3475 19.952 18.7181 19.568C18.0888 19.1733 17.5875 18.6293 17.2141 17.936C16.8515 17.232 16.6701 16.4373 16.6701 15.552ZM23.8861 15.584C23.8861 14.976 23.7581 14.448 23.5021 14C23.2568 13.552 22.9315 13.2107 22.5261 12.976C22.1208 12.7413 21.6835 12.624 21.2141 12.624C20.7448 12.624 20.3075 12.7413 19.9021 12.976C19.4968 13.2 19.1661 13.536 18.9101 13.984C18.6648 14.4213 18.5421 14.944 18.5421 15.552C18.5421 16.16 18.6648 16.6933 18.9101 17.152C19.1661 17.6107 19.4968 17.9627 19.9021 18.208C20.3181 18.4427 20.7555 18.56 21.2141 18.56C21.6835 18.56 22.1208 18.4427 22.5261 18.208C22.9315 17.9733 23.2568 17.632 23.5021 17.184C23.7581 16.7253 23.8861 16.192 23.8861 15.584ZM27.5139 15.584C27.5139 14.6773 27.6952 13.8827 28.0579 13.2C28.4312 12.5067 28.9432 11.9733 29.5939 11.6C30.2445 11.2267 30.9912 11.04 31.8339 11.04C32.9005 11.04 33.7805 11.296 34.4739 11.808C35.1779 12.3093 35.6525 13.0293 35.8979 13.968H33.9299C33.7699 13.5307 33.5139 13.1893 33.1619 12.944C32.8099 12.6987 32.3672 12.576 31.8339 12.576C31.0872 12.576 30.4899 12.8427 30.0419 13.376C29.6045 13.8987 29.3859 14.6347 29.3859 15.584C29.3859 16.5333 29.6045 17.2747 30.0419 17.808C30.4899 18.3413 31.0872 18.608 31.8339 18.608C32.8899 18.608 33.5885 18.144 33.9299 17.216H35.8979C35.6419 18.112 35.1619 18.8267 34.4579 19.36C33.7539 19.8827 32.8792 20.144 31.8339 20.144C30.9912 20.144 30.2445 19.9573 29.5939 19.584C28.9432 19.2 28.4312 18.6667 28.0579 17.984C27.6952 17.2907 27.5139 16.4907 27.5139 15.584ZM37.1076 15.552C37.1076 14.6667 37.289 13.8827 37.6516 13.2C38.025 12.5173 38.5263 11.9893 39.1556 11.616C39.7956 11.232 40.4996 11.04 41.2676 11.04C41.961 11.04 42.5636 11.1787 43.0756 11.456C43.5983 11.7227 44.0143 12.0587 44.3236 12.464V11.184H46.1636V20H44.3236V18.688C44.0143 19.104 43.593 19.4507 43.0596 19.728C42.5263 20.0053 41.9183 20.144 41.2356 20.144C40.4783 20.144 39.785 19.952 39.1556 19.568C38.5263 19.1733 38.025 18.6293 37.6516 17.936C37.289 17.232 37.1076 16.4373 37.1076 15.552ZM44.3236 15.584C44.3236 14.976 44.1956 14.448 43.9396 14C43.6943 13.552 43.369 13.2107 42.9636 12.976C42.5583 12.7413 42.121 12.624 41.6516 12.624C41.1823 12.624 40.745 12.7413 40.3396 12.976C39.9343 13.2 39.6036 13.536 39.3476 13.984C39.1023 14.4213 38.9796 14.944 38.9796 15.552C38.9796 16.16 39.1023 16.6933 39.3476 17.152C39.6036 17.6107 39.9343 17.9627 40.3396 18.208C40.7556 18.4427 41.193 18.56 41.6516 18.56C42.121 18.56 42.5583 18.4427 42.9636 18.208C43.369 17.9733 43.6943 17.632 43.9396 17.184C44.1956 16.7253 44.3236 16.192 44.3236 15.584ZM54.5396 8.16V20H52.7156V8.16H54.5396ZM65.0144 15.376C65.0144 15.7067 64.993 16.0053 64.9504 16.272H58.2144C58.2677 16.976 58.529 17.5413 58.9984 17.968C59.4677 18.3947 60.0437 18.608 60.7264 18.608C61.7077 18.608 62.401 18.1973 62.8064 17.376H64.7744C64.5077 18.1867 64.0224 18.8533 63.3184 19.376C62.625 19.888 61.761 20.144 60.7264 20.144C59.8837 20.144 59.1264 19.9573 58.4544 19.584C57.793 19.2 57.2704 18.6667 56.8864 17.984C56.513 17.2907 56.3264 16.4907 56.3264 15.584C56.3264 14.6773 56.5077 13.8827 56.8704 13.2C57.2437 12.5067 57.761 11.9733 58.4224 11.6C59.0944 11.2267 59.8624 11.04 60.7264 11.04C61.5584 11.04 62.2997 11.2213 62.9504 11.584C63.601 11.9467 64.1077 12.4587 64.4704 13.12C64.833 13.7707 65.0144 14.5227 65.0144 15.376ZM63.1104 14.8C63.0997 14.128 62.8597 13.5893 62.3904 13.184C61.921 12.7787 61.3397 12.576 60.6464 12.576C60.017 12.576 59.4784 12.7787 59.0304 13.184C58.5824 13.5787 58.3157 14.1173 58.2304 14.8H63.1104ZM68.6334 12.496C68.9427 12.0693 69.364 11.7227 69.8974 11.456C70.4414 11.1787 71.044 11.04 71.7054 11.04C72.484 11.04 73.188 11.2267 73.8174 11.6C74.4467 11.9733 74.9427 12.5067 75.3054 13.2C75.668 13.8827 75.8494 14.6667 75.8494 15.552C75.8494 16.4373 75.668 17.232 75.3054 17.936C74.9427 18.6293 74.4414 19.1733 73.8014 19.568C73.172 19.952 72.4734 20.144 71.7054 20.144C71.0227 20.144 70.4147 20.0107 69.8814 19.744C69.3587 19.4773 68.9427 19.136 68.6334 18.72V20H66.8094V8.16H68.6334V12.496ZM73.9934 15.552C73.9934 14.944 73.8654 14.4213 73.6094 13.984C73.364 13.536 73.0334 13.2 72.6174 12.976C72.212 12.7413 71.7747 12.624 71.3054 12.624C70.8467 12.624 70.4094 12.7413 69.9934 12.976C69.588 13.2107 69.2574 13.552 69.0014 14C68.756 14.448 68.6334 14.976 68.6334 15.584C68.6334 16.192 68.756 16.7253 69.0014 17.184C69.2574 17.632 69.588 17.9733 69.9934 18.208C70.4094 18.4427 70.8467 18.56 71.3054 18.56C71.7747 18.56 72.212 18.4427 72.6174 18.208C73.0334 17.9627 73.364 17.6107 73.6094 17.152C73.8654 16.6933 73.9934 16.16 73.9934 15.552ZM78.5811 10.016C78.2505 10.016 77.9731 9.904 77.7491 9.68C77.5251 9.456 77.4131 9.17867 77.4131 8.848C77.4131 8.51733 77.5251 8.24 77.7491 8.016C77.9731 7.792 78.2505 7.68 78.5811 7.68C78.9011 7.68 79.1731 7.792 79.3971 8.016C79.6211 8.24 79.7331 8.51733 79.7331 8.848C79.7331 9.17867 79.6211 9.456 79.3971 9.68C79.1731 9.904 78.9011 10.016 78.5811 10.016ZM79.4771 11.184V20H77.6531V11.184H79.4771ZM86.4319 11.04C87.1039 11.04 87.7012 11.184 88.2239 11.472C88.7572 11.76 89.1732 12.1867 89.4719 12.752C89.7812 13.3173 89.9359 14 89.9359 14.8V20H88.1279V15.072C88.1279 14.2827 87.9305 13.68 87.5359 13.264C87.1412 12.8373 86.6025 12.624 85.9199 12.624C85.2372 12.624 84.6932 12.8373 84.2879 13.264C83.8932 13.68 83.6959 14.2827 83.6959 15.072V20H81.8719V8.16H83.6959V12.208C84.0052 11.8347 84.3945 11.5467 84.8639 11.344C85.3439 11.1413 85.8665 11.04 86.4319 11.04ZM98.2428 18.528H102.003V20H96.4188V8.88H98.2428V18.528ZM102.92 15.552C102.92 14.6667 103.101 13.8827 103.464 13.2C103.837 12.5173 104.339 11.9893 104.968 11.616C105.608 11.232 106.312 11.04 107.08 11.04C107.773 11.04 108.376 11.1787 108.888 11.456C109.411 11.7227 109.827 12.0587 110.136 12.464V11.184H111.976V20H110.136V18.688C109.827 19.104 109.405 19.4507 108.872 19.728C108.339 20.0053 107.731 20.144 107.048 20.144C106.291 20.144 105.597 19.952 104.968 19.568C104.339 19.1733 103.837 18.6293 103.464 17.936C103.101 17.232 102.92 16.4373 102.92 15.552ZM110.136 15.584C110.136 14.976 110.008 14.448 109.752 14C109.507 13.552 109.181 13.2107 108.776 12.976C108.371 12.7413 107.933 12.624 107.464 12.624C106.995 12.624 106.557 12.7413 106.152 12.976C105.747 13.2 105.416 13.536 105.16 13.984C104.915 14.4213 104.792 14.944 104.792 15.552C104.792 16.16 104.915 16.6933 105.16 17.152C105.416 17.6107 105.747 17.9627 106.152 18.208C106.568 18.4427 107.005 18.56 107.464 18.56C107.933 18.56 108.371 18.4427 108.776 18.208C109.181 17.9733 109.507 17.632 109.752 17.184C110.008 16.7253 110.136 16.192 110.136 15.584ZM118.82 11.04C119.513 11.04 120.132 11.184 120.676 11.472C121.231 11.76 121.663 12.1867 121.972 12.752C122.281 13.3173 122.436 14 122.436 14.8V20H120.628V15.072C120.628 14.2827 120.431 13.68 120.036 13.264C119.641 12.8373 119.103 12.624 118.42 12.624C117.737 12.624 117.193 12.8373 116.788 13.264C116.393 13.68 116.196 14.2827 116.196 15.072V20H114.372V11.184H116.196V12.192C116.495 11.8293 116.873 11.5467 117.332 11.344C117.801 11.1413 118.297 11.04 118.82 11.04ZM125.691 10.016C125.36 10.016 125.083 9.904 124.859 9.68C124.635 9.456 124.523 9.17867 124.523 8.848C124.523 8.51733 124.635 8.24 124.859 8.016C125.083 7.792 125.36 7.68 125.691 7.68C126.011 7.68 126.283 7.792 126.507 8.016C126.731 8.24 126.843 8.51733 126.843 8.848C126.843 9.17867 126.731 9.456 126.507 9.68C126.283 9.904 126.011 10.016 125.691 10.016ZM126.587 21.728C126.587 22.592 126.368 23.216 125.931 23.6C125.504 23.9947 124.88 24.192 124.059 24.192H123.114V22.656H123.739C124.112 22.656 124.373 22.5813 124.523 22.432C124.683 22.2933 124.763 22.0587 124.763 21.728V11.184H126.587V21.728ZM136.965 11.184V20H135.141V18.96C134.853 19.3227 134.475 19.6107 134.005 19.824C133.547 20.0267 133.056 20.128 132.533 20.128C131.84 20.128 131.216 19.984 130.661 19.696C130.117 19.408 129.685 18.9813 129.365 18.416C129.056 17.8507 128.901 17.168 128.901 16.368V11.184H130.709V16.096C130.709 16.8853 130.907 17.4933 131.301 17.92C131.696 18.336 132.235 18.544 132.917 18.544C133.6 18.544 134.139 18.336 134.533 17.92C134.939 17.4933 135.141 16.8853 135.141 16.096V11.184H136.965ZM141.5 12.672V17.552C141.5 17.8827 141.575 18.1227 141.724 18.272C141.884 18.4107 142.151 18.48 142.524 18.48H143.644V20H142.204C141.383 20 140.753 19.808 140.316 19.424C139.879 19.04 139.66 18.416 139.66 17.552V12.672H138.62V11.184H139.66V8.992H141.5V11.184H143.644V12.672H141.5Z" fill="#203239"/>
<path d="M166.47 10.5303C166.177 10.2374 166.177 9.76256 166.47 9.46967C166.763 9.17678 167.237 9.17678 167.53 9.46967L171.53 13.4697C171.823 13.7626 171.823 14.2374 171.53 14.5303L167.53 18.5303C167.237 18.8232 166.763 18.8232 166.47 18.5303C166.177 18.2374 166.177 17.7626 166.47 17.4697L169.189 14.75H159.5C159.086 14.75 158.75 14.4142 158.75 14C158.75 13.5858 159.086 13.25 159.5 13.25H169.189L166.47 10.5303Z" fill="#203239"/>
</svg>
