<svg width="288" height="24" viewBox="0 0 288 24" fill="none" xmlns="http://www.w3.org/2000/svg">
<path d="M12 8.75005C10.2051 8.75005 8.75 10.2051 8.75 12C8.75 13.795 10.2051 15.25 12 15.25C13.7949 15.25 15.25 13.795 15.25 12C15.25 10.2051 13.7949 8.75005 12 8.75005Z" fill="#EEEDDE"/>
<path fill-rule="evenodd" clip-rule="evenodd" d="M6.76954 3.08151C10.2177 2.69614 13.7824 2.69614 17.2305 3.08151C19.1289 3.29369 20.6601 4.78947 20.8829 6.69452C21.2952 10.2195 21.2952 13.7806 20.8829 17.3056C20.6601 19.2106 19.1289 20.7064 17.2305 20.9186C13.7824 21.304 10.2177 21.304 6.76954 20.9186C4.87114 20.7064 3.33995 19.2106 3.11713 17.3056C2.70485 13.7806 2.70485 10.2195 3.11713 6.69452C3.33995 4.78947 4.87114 3.29369 6.76954 3.08151ZM17 6.00005C16.4477 6.00005 16 6.44776 16 7.00005C16 7.55233 16.4477 8.00005 17 8.00005C17.5523 8.00005 18 7.55233 18 7.00005C18 6.44776 17.5523 6.00005 17 6.00005ZM7.25 12C7.25 9.37669 9.37665 7.25005 12 7.25005C14.6234 7.25005 16.75 9.37669 16.75 12C16.75 14.6234 14.6234 16.75 12 16.75C9.37665 16.75 7.25 14.6234 7.25 12Z" fill="#EEEDDE"/>
<path d="M102.2 2.875C100.973 2.875 99.797 3.36228 98.9296 4.22963C98.0623 5.09699 97.575 6.27337 97.575 7.5V10.075H95.1C94.9757 10.075 94.875 10.1757 94.875 10.3V13.7C94.875 13.8243 94.9757 13.925 95.1 13.925H97.575V20.9C97.575 21.0243 97.6757 21.125 97.8 21.125H101.2C101.324 21.125 101.425 21.0243 101.425 20.9V13.925H103.922C104.025 13.925 104.115 13.8547 104.14 13.7546L104.99 10.3546C105.026 10.2126 104.918 10.075 104.772 10.075H101.425V7.5C101.425 7.29446 101.507 7.09733 101.652 6.95199C101.797 6.80665 101.994 6.725 102.2 6.725H104.8C104.924 6.725 105.025 6.62426 105.025 6.5V3.1C105.025 2.97574 104.924 2.875 104.8 2.875H102.2Z" fill="#EEEDDE"/>
<path d="M192.256 17.1541C192.22 17.0436 192.098 16.9878 191.988 17.0264C191.599 17.1636 191.19 17.2407 190.777 17.2546C190.545 17.2799 190.31 17.2515 190.09 17.1717C189.871 17.092 189.673 16.9629 189.511 16.7944C189.349 16.626 189.228 16.4227 189.158 16.2001C189.088 15.9824 189.069 15.7519 189.101 15.5257C189.102 15.5158 189.103 15.5059 189.103 15.4959V10.0793H192.39C192.501 10.0793 192.59 9.98979 192.59 9.87934V7.66382C192.59 7.55336 192.501 7.46382 192.39 7.46382H189.103V3.2C189.103 3.08954 189.013 3 188.903 3H186.557C186.524 3.00221 186.493 3.01696 186.47 3.04125C186.448 3.06554 186.435 3.09755 186.435 3.13078C186.38 4.16286 186.026 5.15666 185.416 5.99106C184.833 6.78822 184.041 7.40698 183.129 7.77943C183.052 7.81086 183 7.88501 183 7.96818V9.87934C183 9.98979 183.09 10.0793 183.2 10.0793H184.744V15.7812C184.744 17.7254 186.182 20.4978 189.975 20.4368C191.186 20.4368 192.53 19.9381 192.939 19.4932C192.981 19.4475 192.989 19.3822 192.969 19.3233L192.256 17.1541Z" fill="#EEEDDE"/>
<path d="M268.75 1.875C267.576 1.875 266.625 2.82639 266.625 4C266.625 5.1736 267.576 6.125 268.75 6.125C269.924 6.125 270.875 5.1736 270.875 4C270.875 2.82639 269.924 1.875 268.75 1.875Z" fill="#EEEDDE"/>
<path d="M266.75 7.875C266.681 7.875 266.625 7.93096 266.625 8V21C266.625 21.069 266.681 21.125 266.75 21.125H270.75C270.819 21.125 270.875 21.069 270.875 21V8C270.875 7.93096 270.819 7.875 270.75 7.875H266.75Z" fill="#EEEDDE"/>
<path d="M273.25 7.875C273.181 7.875 273.125 7.93096 273.125 8V21C273.125 21.069 273.181 21.125 273.25 21.125H277.25C277.319 21.125 277.375 21.069 277.375 21V14C277.375 13.5027 277.573 13.0258 277.924 12.6742C278.276 12.3225 278.753 12.125 279.25 12.125C279.747 12.125 280.224 12.3225 280.576 12.6742C280.927 13.0258 281.125 13.5027 281.125 14V21C281.125 21.069 281.181 21.125 281.25 21.125H285.25C285.319 21.125 285.375 21.069 285.375 21V12.3802C285.375 9.9535 283.264 8.05499 280.85 8.2745C280.105 8.34219 279.369 8.52731 278.681 8.82194L277.375 9.38186V8C277.375 7.93096 277.319 7.875 277.25 7.875H273.25Z" fill="#EEEDDE"/>
</svg>
