<svg width="136" height="42" viewBox="0 0 136 42" fill="none" xmlns="http://www.w3.org/2000/svg">
<path d="M3.432 33.152C7.016 30.1653 9.872 27.6827 12 25.704C14.128 23.688 15.9013 21.5973 17.32 19.432C18.7387 17.2667 19.448 15.1387 19.448 13.048C19.448 11.144 19 9.65067 18.104 8.568C17.208 7.48533 15.8267 6.944 13.96 6.944C12.0933 6.944 10.656 7.57866 9.648 8.848C8.64 10.08 8.11733 11.7787 8.08 13.944H0.464C0.613333 9.464 1.93867 6.06666 4.44 3.752C6.97867 1.43733 10.1893 0.279996 14.072 0.279996C18.328 0.279996 21.5947 1.41866 23.872 3.696C26.1493 5.936 27.288 8.904 27.288 12.6C27.288 15.512 26.504 18.2933 24.936 20.944C23.368 23.5947 21.576 25.9093 19.56 27.888C17.544 29.8293 14.912 32.1813 11.664 34.944H28.184V41.44H0.52V35.616L3.432 33.152ZM33.1243 21.056C33.1243 14.5973 34.2816 9.53866 36.5963 5.88C38.9483 2.22133 42.8309 0.391998 48.2443 0.391998C53.6576 0.391998 57.5216 2.22133 59.8363 5.88C62.1883 9.53866 63.3643 14.5973 63.3643 21.056C63.3643 27.552 62.1883 32.648 59.8363 36.344C57.5216 40.04 53.6576 41.888 48.2443 41.888C42.8309 41.888 38.9483 40.04 36.5963 36.344C34.2816 32.648 33.1243 27.552 33.1243 21.056ZM55.6363 21.056C55.6363 18.2933 55.4496 15.9787 55.0763 14.112C54.7403 12.208 54.0309 10.6587 52.9483 9.464C51.9029 8.26933 50.3349 7.672 48.2443 7.672C46.1536 7.672 44.5669 8.26933 43.4843 9.464C42.4389 10.6587 41.7296 12.208 41.3563 14.112C41.0203 15.9787 40.8523 18.2933 40.8523 21.056C40.8523 23.8933 41.0203 26.2827 41.3563 28.224C41.6923 30.128 42.4016 31.6773 43.4843 32.872C44.5669 34.0293 46.1536 34.608 48.2443 34.608C50.3349 34.608 51.9216 34.0293 53.0043 32.872C54.0869 31.6773 54.7963 30.128 55.1323 28.224C55.4683 26.2827 55.6363 23.8933 55.6363 21.056ZM69.3274 21.056C69.3274 14.5973 70.4847 9.53866 72.7994 5.88C75.1514 2.22133 79.034 0.391998 84.4474 0.391998C89.8607 0.391998 93.7247 2.22133 96.0394 5.88C98.3914 9.53866 99.5674 14.5973 99.5674 21.056C99.5674 27.552 98.3914 32.648 96.0394 36.344C93.7247 40.04 89.8607 41.888 84.4474 41.888C79.034 41.888 75.1514 40.04 72.7994 36.344C70.4847 32.648 69.3274 27.552 69.3274 21.056ZM91.8394 21.056C91.8394 18.2933 91.6527 15.9787 91.2794 14.112C90.9434 12.208 90.234 10.6587 89.1514 9.464C88.106 8.26933 86.538 7.672 84.4474 7.672C82.3567 7.672 80.77 8.26933 79.6874 9.464C78.642 10.6587 77.9327 12.208 77.5594 14.112C77.2234 15.9787 77.0554 18.2933 77.0554 21.056C77.0554 23.8933 77.2234 26.2827 77.5594 28.224C77.8954 30.128 78.6047 31.6773 79.6874 32.872C80.77 34.0293 82.3567 34.608 84.4474 34.608C86.538 34.608 88.1247 34.0293 89.2074 32.872C90.29 31.6773 90.9994 30.128 91.3354 28.224C91.6714 26.2827 91.8394 23.8933 91.8394 21.056Z" fill="#203239"/>
<path d="M135.715 25.48H125.131V36.344H117.739V25.48H107.155V18.648H117.739V7.784H125.131V18.648H135.715V25.48Z" fill="#FF7527"/>
</svg>
