<svg width="136" height="43" viewBox="0 0 136 43" fill="none" xmlns="http://www.w3.org/2000/svg">
<path d="M9.04 30.52C9.33867 32.1627 10.0107 33.432 11.056 34.328C12.1387 35.1867 13.576 35.616 15.368 35.616C17.6827 35.616 19.3627 34.664 20.408 32.76C21.4533 30.8187 21.976 27.5707 21.976 23.016C21.1173 24.2107 19.904 25.144 18.336 25.816C16.8053 26.488 15.144 26.824 13.352 26.824C10.9627 26.824 8.79733 26.3387 6.856 25.368C4.952 24.36 3.44 22.8853 2.32 20.944C1.2 18.9653 0.64 16.576 0.64 13.776C0.64 9.632 1.872 6.34667 4.336 3.92C6.8 1.456 10.16 0.223997 14.416 0.223997C19.7173 0.223997 23.4507 1.92266 25.616 5.32C27.8187 8.71733 28.92 13.832 28.92 20.664C28.92 25.5173 28.4907 29.4933 27.632 32.592C26.8107 35.6907 25.3733 38.0427 23.32 39.648C21.304 41.2533 18.5413 42.056 15.032 42.056C12.2693 42.056 9.91733 41.5333 7.976 40.488C6.03467 39.4053 4.54133 38.0053 3.496 36.288C2.488 34.5333 1.90933 32.6107 1.76 30.52H9.04ZM14.976 20.44C16.9173 20.44 18.448 19.8427 19.568 18.648C20.688 17.4533 21.248 15.848 21.248 13.832C21.248 11.6293 20.6507 9.93066 19.456 8.736C18.2987 7.504 16.712 6.888 14.696 6.888C12.68 6.888 11.0747 7.52266 9.88 8.792C8.72267 10.024 8.144 11.6667 8.144 13.72C8.144 15.6987 8.704 17.3227 9.824 18.592C10.9813 19.824 12.6987 20.44 14.976 20.44ZM44.0947 30.52C44.3934 32.1627 45.0654 33.432 46.1107 34.328C47.1934 35.1867 48.6307 35.616 50.4227 35.616C52.7374 35.616 54.4174 34.664 55.4627 32.76C56.508 30.8187 57.0307 27.5707 57.0307 23.016C56.172 24.2107 54.9587 25.144 53.3907 25.816C51.86 26.488 50.1987 26.824 48.4067 26.824C46.0174 26.824 43.852 26.3387 41.9107 25.368C40.0067 24.36 38.4947 22.8853 37.3747 20.944C36.2547 18.9653 35.6947 16.576 35.6947 13.776C35.6947 9.632 36.9267 6.34667 39.3907 3.92C41.8547 1.456 45.2147 0.223997 49.4707 0.223997C54.772 0.223997 58.5054 1.92266 60.6707 5.32C62.8734 8.71733 63.9747 13.832 63.9747 20.664C63.9747 25.5173 63.5454 29.4933 62.6867 32.592C61.8654 35.6907 60.428 38.0427 58.3747 39.648C56.3587 41.2533 53.596 42.056 50.0867 42.056C47.324 42.056 44.972 41.5333 43.0307 40.488C41.0894 39.4053 39.596 38.0053 38.5507 36.288C37.5427 34.5333 36.964 32.6107 36.8147 30.52H44.0947ZM50.0307 20.44C51.972 20.44 53.5027 19.8427 54.6227 18.648C55.7427 17.4533 56.3027 15.848 56.3027 13.832C56.3027 11.6293 55.7054 9.93066 54.5107 8.736C53.3534 7.504 51.7667 6.888 49.7507 6.888C47.7347 6.888 46.1294 7.52266 44.9347 8.792C43.7774 10.024 43.1987 11.6667 43.1987 13.72C43.1987 15.6987 43.7587 17.3227 44.8787 18.592C46.036 19.824 47.7534 20.44 50.0307 20.44ZM79.1494 30.52C79.448 32.1627 80.12 33.432 81.1654 34.328C82.248 35.1867 83.6854 35.616 85.4774 35.616C87.792 35.616 89.472 34.664 90.5174 32.76C91.5627 30.8187 92.0854 27.5707 92.0854 23.016C91.2267 24.2107 90.0134 25.144 88.4454 25.816C86.9147 26.488 85.2534 26.824 83.4614 26.824C81.072 26.824 78.9067 26.3387 76.9654 25.368C75.0614 24.36 73.5494 22.8853 72.4294 20.944C71.3094 18.9653 70.7494 16.576 70.7494 13.776C70.7494 9.632 71.9814 6.34667 74.4454 3.92C76.9094 1.456 80.2694 0.223997 84.5254 0.223997C89.8267 0.223997 93.56 1.92266 95.7254 5.32C97.928 8.71733 99.0294 13.832 99.0294 20.664C99.0294 25.5173 98.6 29.4933 97.7414 32.592C96.92 35.6907 95.4827 38.0427 93.4294 39.648C91.4134 41.2533 88.6507 42.056 85.1414 42.056C82.3787 42.056 80.0267 41.5333 78.0854 40.488C76.144 39.4053 74.6507 38.0053 73.6054 36.288C72.5974 34.5333 72.0187 32.6107 71.8694 30.52H79.1494ZM85.0854 20.44C87.0267 20.44 88.5574 19.8427 89.6774 18.648C90.7974 17.4533 91.3574 15.848 91.3574 13.832C91.3574 11.6293 90.76 9.93066 89.5654 8.736C88.408 7.504 86.8214 6.888 84.8054 6.888C82.7894 6.888 81.184 7.52266 79.9894 8.792C78.832 10.024 78.2534 11.6667 78.2534 13.72C78.2534 15.6987 78.8134 17.3227 79.9334 18.592C81.0907 19.824 82.808 20.44 85.0854 20.44Z" fill="#203239"/>
<path d="M135.316 25.48H124.732V36.344H117.34V25.48H106.756V18.648H117.34V7.784H124.732V18.648H135.316V25.48Z" fill="#FF7527"/>
</svg>
