<svg width="107" height="43" viewBox="0 0 107 43" fill="none" xmlns="http://www.w3.org/2000/svg">
<path d="M0.0160001 8.4V1.176H13.512V42H5.448V8.4H0.0160001ZM21.2571 21.056C21.2571 14.5973 22.4144 9.53866 24.7291 5.88C27.0811 2.22133 30.9637 0.391998 36.3771 0.391998C41.7904 0.391998 45.6544 2.22133 47.9691 5.88C50.3211 9.53866 51.4971 14.5973 51.4971 21.056C51.4971 27.552 50.3211 32.648 47.9691 36.344C45.6544 40.04 41.7904 41.888 36.3771 41.888C30.9637 41.888 27.0811 40.04 24.7291 36.344C22.4144 32.648 21.2571 27.552 21.2571 21.056ZM43.7691 21.056C43.7691 18.2933 43.5824 15.9787 43.2091 14.112C42.8731 12.208 42.1637 10.6587 41.0811 9.464C40.0357 8.26933 38.4677 7.672 36.3771 7.672C34.2864 7.672 32.6997 8.26933 31.6171 9.464C30.5717 10.6587 29.8624 12.208 29.4891 14.112C29.1531 15.9787 28.9851 18.2933 28.9851 21.056C28.9851 23.8933 29.1531 26.2827 29.4891 28.224C29.8251 30.128 30.5344 31.6773 31.6171 32.872C32.6997 34.0293 34.2864 34.608 36.3771 34.608C38.4677 34.608 40.0544 34.0293 41.1371 32.872C42.2197 31.6773 42.9291 30.128 43.2651 28.224C43.6011 26.2827 43.7691 23.8933 43.7691 21.056Z" fill="#203239"/>
<path d="M63.5642 30.768V32.96H60.5882V42H57.8522V32.96H54.8762V30.768H63.5642ZM64.3933 37.52C64.3933 36.6027 64.564 35.7973 64.9053 35.104C65.2573 34.4107 65.732 33.8773 66.3293 33.504C66.9266 33.1307 67.5933 32.944 68.3293 32.944C68.9586 32.944 69.508 33.072 69.9773 33.328C70.4573 33.584 70.8253 33.92 71.0813 34.336V33.072H73.8173V42H71.0813V40.736C70.8146 41.152 70.4413 41.488 69.9613 41.744C69.492 42 68.9426 42.128 68.3133 42.128C67.588 42.128 66.9266 41.9413 66.3293 41.568C65.732 41.184 65.2573 40.6453 64.9053 39.952C64.564 39.248 64.3933 38.4373 64.3933 37.52ZM71.0813 37.536C71.0813 36.8533 70.8893 36.3147 70.5053 35.92C70.132 35.5253 69.6733 35.328 69.1293 35.328C68.5853 35.328 68.1213 35.5253 67.7373 35.92C67.364 36.304 67.1773 36.8373 67.1773 37.52C67.1773 38.2027 67.364 38.7467 67.7373 39.152C68.1213 39.5467 68.5853 39.744 69.1293 39.744C69.6733 39.744 70.132 39.5467 70.5053 39.152C70.8893 38.7573 71.0813 38.2187 71.0813 37.536ZM81.2847 32.976C82.3087 32.976 83.13 33.3173 83.7487 34C84.3674 34.672 84.6767 35.6 84.6767 36.784V42H81.9567V37.152C81.9567 36.5547 81.802 36.0907 81.4927 35.76C81.1834 35.4293 80.7674 35.264 80.2447 35.264C79.722 35.264 79.306 35.4293 78.9967 35.76C78.6874 36.0907 78.5327 36.5547 78.5327 37.152V42H75.7967V30.16H78.5327V34.272C78.81 33.8773 79.1887 33.5627 79.6687 33.328C80.1487 33.0933 80.6874 32.976 81.2847 32.976ZM95.3939 33.072V42H92.6579V40.784C92.3806 41.1787 92.0019 41.4987 91.5219 41.744C91.0526 41.9787 90.5299 42.096 89.9539 42.096C89.2713 42.096 88.6686 41.9467 88.1459 41.648C87.6233 41.3387 87.2179 40.896 86.9299 40.32C86.6419 39.744 86.4979 39.0667 86.4979 38.288V33.072H89.2179V37.92C89.2179 38.5173 89.3726 38.9813 89.6819 39.312C89.9913 39.6427 90.4073 39.808 90.9299 39.808C91.4633 39.808 91.8846 39.6427 92.1939 39.312C92.5033 38.9813 92.6579 38.5173 92.6579 37.92V33.072H95.3939ZM102.799 32.976C103.845 32.976 104.677 33.3173 105.295 34C105.925 34.672 106.239 35.6 106.239 36.784V42H103.519V37.152C103.519 36.5547 103.365 36.0907 103.055 35.76C102.746 35.4293 102.33 35.264 101.807 35.264C101.285 35.264 100.869 35.4293 100.559 35.76C100.25 36.0907 100.095 36.5547 100.095 37.152V42H97.3592V33.072H100.095V34.256C100.373 33.8613 100.746 33.552 101.215 33.328C101.685 33.0933 102.213 32.976 102.799 32.976Z" fill="#FF7527"/>
</svg>
